<?xml version="1.0" encoding="utf-8"?>
<!-- Generator: Adobe Illustrator 27.3.1, SVG Export Plug-In . SVG Version: 6.00 Build 0)  -->
<svg version="1.1" xmlns="http://www.w3.org/2000/svg" xmlns:xlink="http://www.w3.org/1999/xlink" x="0px" y="0px"
	 viewBox="0 0 855.3 161.7" style="enable-background:new 0 0 855.3 161.7;" xml:space="preserve">
<style type="text/css">
	.st0{fill:#FFD700;}
	.st1{fill:#A62167;}
</style>
<g id="Layer_2">
</g>
<g id="Layer_1">
	<path class="st0" d="M697.4,132.2c0,0-5.5,6.4-18.8,7.3c-17.8,1.2-23.4-6.5-23.4-6.5s-1.1-3.4,0.4-5.2c1.4-1.9,0.7-1.6,2.8-5
		c2.1-3.4,7.1-9,9.7-13.6c3.7-6.6,4.9-12.6,5.3-20.1c0.2-3.7,1.2-9.5,0.7-16.1c-0.8-11-3.2-23.2-3.2-23.2l51.9-9.3
		c0,0-18.2,30-26.9,52.9c-2.8,7.3-4.6,8.7-4.4,13c0.1,2.4,0.6,6.1,2.8,11.4c0.3,0.9,0.5,1.3,0.7,2.2c0.8,2.8,2.1,4.3,2.4,6.1
		C698.3,132,697.4,132.2,697.4,132.2z"/>
	<path class="st0" d="M723.8,33.9c-0.4,8.8-12.3,27.4-27.4,27.4s-27.4-12.3-27.4-27.4s12.3-27.4,27.4-27.4S724.4,20.7,723.8,33.9z"
		/>
	<g>
		<path class="st0" d="M6.6,138.2l17.4-98h48.3c8.8,0,15.8,1.9,21.1,5.8s8,9.4,8,16.7c0,5.1-1.4,9.8-4.2,14
			c-2.8,4.2-7.1,7.6-13,10.2c4.2,1.6,7.3,4.2,9.4,7.8c2.1,3.6,3.2,7.7,3.2,12.2c0,2.8-0.4,5.6-1.2,8.4c-2.6,8-7,13.8-13.4,17.5
			c-6.4,3.7-14.9,5.5-25.6,5.5H6.6z M31.3,119.1h26.9c5.5,0,9.6-1.1,12.5-3.4c2.8-2.3,4.2-5.5,4.2-9.5c0-3-1.1-5.3-3.3-7
			s-5.4-2.6-9.6-2.6H35.3L31.3,119.1z M38.6,78.3h26.6c4.2,0,7.5-1.2,10-3.6c2.5-2.4,3.7-5,3.7-7.9c0-2.3-0.8-4.2-2.4-5.7
			c-1.6-1.4-4.1-2.1-7.5-2.1H42L38.6,78.3z"/>
		<path class="st0" d="M110,109.6c0-8.1,1.8-15.4,5.5-21.8c3.7-6.4,8.9-11.5,15.5-15.1c6.7-3.6,14.2-5.4,22.6-5.4
			c9.3,0,16.6,2.2,22,6.7c5.4,4.5,8.1,10.9,8.1,19.4c0,5.1-1,10.8-3.1,16.9h-50.8c-0.1,3.6,1.3,6.5,4.2,8.8
			c2.9,2.3,7.1,3.5,12.5,3.5c7.8,0,14.1-1.8,18.9-5.5l9.1,12.6c-4.2,3.5-9.1,6-14.7,7.7c-5.6,1.7-11.2,2.5-16.9,2.5
			c-10.7,0-18.8-2.7-24.5-8.1C112.9,126.2,110,118.9,110,109.6z M132.6,95.5h32.7c0-0.4,0.1-0.7,0.1-1.1c0-3-1.3-5.3-3.8-7
			c-2.8-1.9-6.4-2.8-10.9-2.8c-4.1,0-7.8,1-11,2.9C136.6,89.5,134.2,92.1,132.6,95.5z"/>
		<path class="st0" d="M189,86.3c-0.5-2.7-1.3-8-5.8-12.8c-2-2.1-4.1-3.6-5.8-4.6c11.3,0,22.5,0,33.8,0l2.9-16.5l20.4-2.3l-3.3,18.7
			h17.5l-2.9,17.4h-17.7l-4.6,26c-0.1,1.3-0.2,2.1-0.2,2.5c0,4.5,2.2,6.7,6.6,6.7c3.1,0,6-0.5,8.7-1.6l1.7,16.7
			c-5.3,2.1-11,3.1-17.2,3.1c-13.6,0-20.4-6.4-20.4-19.1c0-2.5,0.3-5.3,0.8-8.3l4.6-26H189z"/>
		<path class="st1" d="M253.6,138.2L265.7,69h17.7v7.9c4.8-6.2,11.4-9.4,19.8-9.4c4.2,0,8,1,11.3,3c3.3,2,5.5,5.3,6.7,9.8
			c3.9-4.7,7.8-8.1,11.7-10c3.9-2,8.4-2.9,13.5-2.9c3.3,0,6.2,0.4,8.8,1.1c2.6,0.8,5,2,7.1,3.7c2.2,1.7,3.8,4.1,5,7.1
			c1.2,3.1,1.8,6.7,1.8,10.9c0,3.2-0.3,6.4-1,9.8l-6.8,38.2h-20.2l6.6-37.4c0.4-1.9,0.5-3.7,0.5-5.6c0-2.9-0.7-5.1-2-6.6
			c-1.3-1.5-3.5-2.2-6.6-2.2c-3.8,0-7.1,1.4-9.9,4.2c-2.8,2.8-4.5,6.3-5.4,10.5l-6.6,37.1h-19.9l6.6-37.1c0.3-1.7,0.4-3.3,0.4-4.7
			c0-6.9-3.2-10.4-9.6-10.4c-3.9,0-7.1,1.5-9.8,4.4c-2.7,3-4.4,6.6-5.3,10.8l-6.6,37H253.6z"/>
		<path class="st1" d="M385,116.9c0-3.1,0.4-6.9,1.2-11.2l6.5-36.7h20.2l-6.4,36.6c-0.3,1.7-0.4,3.3-0.4,4.8c0,7.6,4,11.4,11.9,11.4
			c4.6,0,8.6-1.7,12.1-5c3.5-3.3,5.7-7.3,6.5-12l6.4-35.8h19.9l-12.2,69.2h-18.3l0.8-9c-6.4,6.9-14.2,10.4-23.5,10.4
			c-2.8,0-5.4-0.2-7.7-0.6s-4.6-1.1-6.7-2.2c-2.1-1.1-3.9-2.4-5.4-4.1c-1.5-1.7-2.6-3.8-3.5-6.5C385.5,123.5,385,120.4,385,116.9z"
			/>
		<path class="st1" d="M471,138.2L483.2,69h18.2l-0.8,8.8c6.7-7,14.6-10.5,23.7-10.5c16.3,0,24.5,7.7,24.5,23.2
			c0,3-0.4,6.6-1.2,10.9l-6.5,36.7h-20.2l6.4-36.6c0.3-1.7,0.4-3.3,0.4-4.7c0-7.6-4-11.3-11.9-11.3c-4.6,0-8.6,1.7-12.1,5
			c-3.5,3.3-5.7,7.3-6.5,12l-6.3,35.7H471z"/>
		<path class="st1" d="M562.4,110.1c0-8.3,1.8-15.7,5.5-22.2c3.7-6.5,8.6-11.5,14.9-15c6.3-3.5,13.3-5.2,21.1-5.2
			c9.1,0,15.7,3.3,19.9,9.8l6.6-37.1h20.2l-17.1,97.9h-18l0.3-8.9c-3.7,3.9-7.5,6.5-11.5,8c-4,1.4-8.4,2.2-13.2,2.2
			c-8.8,0-15.7-2.7-20.8-8.1C565,126,562.4,118.9,562.4,110.1z M583.2,106.8c0,4.4,1.2,7.9,3.6,10.5c2.4,2.7,5.9,4,10.5,4
			c2.8,0,5.4-0.4,7.9-1.2c2.5-0.8,4.8-1.9,7-3.5c2.1-1.5,3.9-3.7,5.1-6.4c1.3-2.7,1.9-5.9,1.9-9.5c0-4.6-1.5-8.3-4.5-10.9
			c-3-2.7-6.7-4-11.1-4c-5.9,0-10.8,2-14.6,6C585.1,95.8,583.2,100.8,583.2,106.8z"/>
		<path class="st1" d="M716.5,110.3c0-8.5,2-16,5.9-22.6c3.9-6.6,9.1-11.6,15.5-15s13.5-5.1,21.2-5.1c4.5,0,8.6,0.9,12.2,2.6
			c3.6,1.7,6.1,4,7.3,6.9l2.1-8h18.9l-12.2,69.2h-18.2l0.4-8.6c-2.6,3.3-6.2,5.8-10.7,7.5c-4.5,1.7-8.6,2.6-12.4,2.6
			c-9.2,0-16.5-2.6-21.9-7.8C719.2,126.7,716.5,119.5,716.5,110.3z M737.2,107c0,4.7,1.4,8.4,4.2,11c2.8,2.7,6.5,4,11,4
			c6.2,0,11.4-2.1,15.6-6.3c4.2-4.2,6.3-9.1,6.3-14.5c0-4.5-1.3-8.3-3.9-11.3c-2.6-3-6.4-4.5-11.5-4.5c-5.9,0-11,2-15.3,5.9
			C739.3,95.2,737.2,100.4,737.2,107z"/>
		<path class="st1" d="M808.3,138.2l17.1-97.9h19.9l-17.1,97.9H808.3z"/>
	</g>
	<g>
		<path class="st1" d="M697,125.1c1.7,3.5,1.9,6.4-1,9.4c-1.9,2-4.4,3.1-6.9,4.1c-3.5,1.4-7.2,2.1-11,2.4c-3,0.2-5.9-0.1-8.8-0.5
			c-2.8-0.3-5.4-1-8-1.9c-2-0.8-4-1.7-5.6-3.2c-2.1-2-2.4-3.9-1.1-6.4c1.1-2,2.4-4,3.8-5.8c2.2-2.8,4.5-5.5,6.8-8.3
			c1.9-2.2,3.8-4.4,5.7-6.5c2.3-2.6,4.6-5.1,6.8-7.6c1.9-2.1,3.8-4.3,5.7-6.5c3.2-3.7,6.3-7.6,8.5-12.1c1.7-3.5,2.4-7.1,2.1-10.9
			c-0.2-2-0.6-3.9-0.6-5.9c0-4.3,1-8.5,2.3-12.6c0.9-2.9,1.1-5.9,1.1-9.1c1.1,1.3,1.7,2.8,2,4.4c0.5,2.7,0.1,5.4-0.7,8.1
			c-0.5,1.7-0.9,3.4-1,5.1c-0.1,2,0.9,3.7,2.4,4.9c1,0.8,1.9,1.5,2.9,2.3c1,0.8,2,0.6,3-0.5c1.5-1.7,2.5-3.6,2.9-5.9
			c0.3-1.7-0.5-2.5-2.1-2.7c-0.1,0-0.2,0-0.3,0c0.7-2.5,1.4-4.9,2-7.3c0.3-1.2,0.6-2.3,0.9-3.5c0.1-0.2,0.2-0.5,0.4-0.6
			c1.6-0.9,3.3-1.7,4.9-2.6c0.1,0,0.2,0,0.4-0.1c0.6,1.5,1.2,3,1.9,4.8c3.1-4.2,5.2-8.7,6.3-13.8c-1.1,0.1-2,0.3-3,0.4
			c-0.2-1.4-0.2-2.8-0.5-4c-0.5-2-1.3-4-2-6c-0.2-0.5-0.2-0.9,0-1.4c0.8-1.8,1.5-3.6,2.3-5.4c0.5,1,1.1,1.9,1.6,2.9
			c2.5,5.1,2.8,7.2,2.6,11.3c-0.2,4.3-1.4,9-3.1,13c-2.9,7.3-7,13.9-11.5,20.3c-2.5,3.5-5.2,7-7.8,10.4c-1.8,2.4-3.7,4.7-5.7,7.1
			c-1.7,2-3.5,4-5.2,5.9c-2.7,2.9-5.4,5.8-8.2,8.7c-2.2,2.3-4.4,4.5-6.7,6.7c-1.9,1.8-3.9,3.4-5.7,5.3c-2.5,2.6-4.8,5.3-7.2,7.9
			c-1.6,1.8-3.2,3.7-4.8,5.6c-0.8,0.9-0.9,2.1-1.1,3.3c-0.3,2.9,1.4,4.6,3.7,5.8c3.1,1.6,6.4,2.5,9.8,2.6c2.3,0.1,4.5,0.3,6.8,0.3
			c4.5-0.1,8.9-0.7,13.2-2.4c2.3-0.9,4.4-2.2,5.8-4.3C697.1,128.4,697.3,126.9,697,125.1z"/>
		<path class="st1" d="M680.3,11.7c-0.4,0.4-0.7,0.7-0.9,1c-1.8,1.9-2.4,4.3-2.7,6.8c-0.2,1.5-0.2,3-0.3,4.5c0,0.4-0.2,0.8-0.4,1.1
			c-1.5,1.9-3.1,3.8-4.5,5.8c-0.9,1.4-1.7,2.9-2.1,4.5c-0.3,1.1,0,2.5,0.2,3.7c0.5,2.5,1.4,4.9,2.6,7.1c0.3,0.5,0.6,1,1.1,1.4
			c0.1-1.1,0.1-2.1,0.2-3.3c1,0.3,1.9,0.6,2.8,0.9c1.4,0.5,2.8,1,4.2,1.4c0.6,0.2,0.8,0.5,0.8,1c0.3,2,0.6,3.9,0.8,5.9
			c0.1,0.5,0.3,0.7,0.8,0.8c3.3,1,6.9-0.6,8.4-3.7c0.7-1.4,1.1-2.9,1.6-4.5c-0.3,1.6-0.5,3.2-0.8,4.7c-0.7,3.6-1.4,7.2-2,10.8
			c-0.4,2.2-0.4,4.4-0.7,6.5c-0.7,5.8-1.8,11.4-4.2,16.8c-1.4,3.1-3.4,5.7-5.4,8.4c-2.1,2.8-4.2,5.7-6.4,8.5
			c-1.2,1.6-2.4,3.1-3.7,4.6c1.5-3.4,2.5-6.9,2.9-10.5c0.5-3.6,0.9-7.3,1.4-10.7c0.3,1,0.6,5.8,0.4,7.1c-0.3,2.5-0.7,4.9-1,7.4
			c0.1,0.1,0.1,0.1,0.2,0.2c0.4-0.5,1-0.9,1.3-1.5c1.1-2,2.2-4,3-6.1c1.7-4.3,2.5-8.8,2.9-13.5c0.3-3.8-0.4-7.2-2.1-10.5
			c-3-5.9-5.6-12-7.8-18.3c-1.1-3.1-1.6-6.3-1.9-9.6c-0.4-4.9-0.3-9.5,1-14.2c1-3.7,2.9-7.3,5.4-10.3c1.3-1.6,2.8-3.1,4.6-4.2
			C680,11.8,680,11.8,680.3,11.7z"/>
		<path class="st1" d="M694.7,119.2c0.6,2,0.7,3.8,0,5.5c-1.1,2.8-3.3,4.4-5.9,5.5c-3,1.2-6.1,1.7-9.3,2.1
			c-3.8,0.4-7.6,0.3-11.3-0.7c-2-0.5-3.9-1.3-5.7-2.6c-2-1.5-1.8-3.3-0.5-4.8c2.5-3.1,5.2-6,7.8-9c2.6-2.9,5.6-5.3,8.7-7.6
			c2.2-1.7,4.4-3.4,6.5-5.3c2.1-1.8,4.1-3.8,6-5.7c2.8-2.8,5-5.9,7-9.3c0.2-0.3,0.4-0.7,0.7-0.9c-0.4,1.1-0.8,2.1-1.3,3.2
			c-1.4,3.3-2.7,6.7-4.9,9.6c-1.3,1.7-2.9,3.3-4.5,4.8c-2,1.8-4.1,3.6-6.3,5.2c-3.5,2.5-7.2,4.9-10.8,7.3c-1.5,1-3,2.1-4.2,3.3
			c-0.8,0.8-1.5,1.9-1.9,3c-0.8,1.9-0.2,3.3,1.6,4.1c1.5,0.6,3.2,1.2,4.9,1.3c2.6,0.3,5.2,0.4,7.7,0.3c2.6-0.1,5.3-0.4,7.9-0.9
			C691.4,126.7,694.2,124.1,694.7,119.2z"/>
		<path class="st1" d="M696.9,21.7c2.5,2.4,4.9,4.7,7.4,7c0.7,0.7,0.9,1.2,0.5,2.1c-1.3,3.1-2.6,6.2-3.9,9.3
			c-0.3,0.6-0.6,0.8-1.3,0.7c-3.3-0.5-6.7-0.9-10-1.3c-0.1,0-0.2,0-0.3-0.1c-0.5-2.6-1.1-5.3-1.6-7.9c-0.2-1.1-0.5-2.1-0.7-3.2
			c-0.1-0.4-0.1-0.7,0.3-0.9c3.2-1.9,6.4-3.8,9.5-5.6C696.7,21.7,696.8,21.7,696.9,21.7z"/>
		<path class="st1" d="M705.8,8.2c-0.4,0.2-0.7,0.3-1,0.4c-2.7,0.7-5,2.1-7.1,3.9c-0.6,0.5-1.3,0.7-2.1,0.6
			c-3.1-0.3-6.1,0.1-9.1,0.5c-0.1,0-0.3,0-0.6,0.1c0.3-1.8,0.6-3.6,0.9-5.3c0-0.2,0.4-0.4,0.7-0.5c2.6-0.9,5.2-1.4,7.9-1.4
			c3.4-0.1,6.6,0.4,9.8,1.5C705.4,8,705.5,8.1,705.8,8.2z"/>
		<path class="st1" d="M677.9,87.5c-3.3-8.4-4.4-17.2-4.9-26.3c0.4,1.1,0.6,2,0.9,2.9c1,3.1,2.2,6.3,3.1,9.4c1.4,4.5,1.8,9,1.1,13.6
			C678.1,87.3,678,87.3,677.9,87.5z"/>
		<path class="st1" d="M674.1,122.3c3.5-2.3,7.3-4.2,10.1-7.4c2.8-3.2,5-6.8,7.3-10.3c-0.4,1.4-0.8,2.9-1.1,4.3
			c-1,4.2-3.9,7-7.1,9.5c-2.5,1.9-5.4,3.2-8.5,3.9C674.5,122.3,674.3,122.3,674.1,122.3z"/>
	</g>
	<path class="st0" d="M674.9,88.9"/>
	<path class="st0" d="M695,119.6"/>
</g>
</svg>
