<?xml version="1.0" encoding="utf-8"?>
<!-- Generator: Adobe Illustrator 27.3.1, SVG Export Plug-In . SVG Version: 6.00 Build 0)  -->
<svg version="1.1" id="Capa_1" xmlns="http://www.w3.org/2000/svg" xmlns:xlink="http://www.w3.org/1999/xlink" x="0px" y="0px"
	 viewBox="0 0 64 64" style="enable-background:new 0 0 64 64;" xml:space="preserve">
<style type="text/css">
	.st0{fill:#FFFFFF;}
</style>
<g id="SVGRepo_bgCarrier">
</g>
<g id="SVGRepo_tracerCarrier">
</g>
<g id="SVGRepo_iconCarrier">
	<path class="st0" d="M45.9,28.7c-0.3-0.5-0.7-1.7-0.7-1.7c-0.9-2.7-1-5.7-0.4-8.4c0,0,0.5-2.2,0.5-2.8c-0.1-2.2-1.9-3.9-4-4
		c-1.2-0.1-2.3,0.3-3.2,1.2c-0.9,0.8-1.3,2-1.3,3.1c0,0.4,0.5,2.4,0.5,2.4c0.7,2.8,0.6,5.7-0.4,8.5c0,0-0.4,1.1-0.6,1.5l-0.1-0.2
		c-0.9-2.7-1-5.7-0.4-8.4c0,0,0.5-2.2,0.5-2.8c-0.1-2.2-1.9-3.9-4-4c-2.5-0.1-4.6,1.8-4.6,4.3c0,0.4,0.5,2.4,0.5,2.4
		c0.7,2.8,0.6,5.7-0.4,8.5l0,0.2C27.5,28,27.1,27,27.1,27c-0.9-2.7-1-5.7-0.4-8.4c0,0,0.5-2.2,0.5-2.8c-0.1-2.2-1.9-3.9-4-4
		c-1.2-0.1-2.3,0.3-3.2,1.2c-0.9,0.8-1.3,2-1.3,3.1c0,0.4,0.5,2.4,0.5,2.4c0.7,2.8,0.6,5.7-0.4,8.5c0,0-0.4,1.2-0.7,1.7
		c-1.5,2.6-2.3,6.3-2.3,10.1c0,4.6,1.2,8.9,3.2,11.4l0.2,0.2l0.2,0.1c1.2,0.3,2.4,0.5,3.6,0.5s2.4-0.2,3.6-0.5l0.2-0.1
		c0,0,0.2-0.2,0.2-0.2c0.3,0.5,0.6,1,0.9,1.4l0.2,0.2l0.2,0.1c1.2,0.3,2.4,0.5,3.6,0.5c1.2,0,2.4-0.2,3.6-0.5l0.2-0.1l0.2-0.2
		c0.3-0.4,0.6-0.9,0.9-1.4c0,0,0.2,0.2,0.2,0.2l0.2,0.1c1.2,0.3,2.4,0.5,3.6,0.5s2.4-0.2,3.6-0.5l0.2-0.1l0.2-0.2
		c1-1.2,1.8-2.9,2.4-4.9c0.6-2,0.9-4.3,0.9-6.5C48.2,34.9,47.4,31.2,45.9,28.7z M39.1,14.1c0.6-0.5,1.3-0.8,2-0.7
		c1.4,0.1,2.5,1.2,2.6,2.5c0,0.3,0,0.6-0.1,1l-0.3,1.3c-0.1,0.4-0.2,0.7-0.2,1.1H39c-0.1-0.4-0.1-0.8-0.2-1.1c0,0-0.3-1.1-0.3-1.3
		c-0.1-0.3-0.1-0.5-0.1-0.8C38.3,15.3,38.6,14.6,39.1,14.1z M42.8,21.8h-3.6c0-0.3,0-0.6,0-1h3.7C42.8,21.2,42.8,21.5,42.8,21.8z
		 M32.2,14.7c1.3,0.1,2.5,1.2,2.6,2.5c0,0.3,0,0.6-0.1,1c0,0-0.2,0.5-0.2,0.8c0,0-0.3,1.3-0.4,1.7H30c-0.1-0.4-0.4-1.6-0.4-1.6
		c-0.1-0.2-0.1-0.5-0.2-0.8c-0.1-0.3-0.1-0.5-0.1-0.8C29.3,15.8,30.6,14.6,32.2,14.7z M33.8,23.1h-3.6c0-0.3,0-0.6,0-1h3.7
		C33.8,22.5,33.8,22.8,33.8,23.1z M21.1,14.1c0.6-0.5,1.3-0.8,2-0.7c1.4,0.1,2.5,1.2,2.6,2.5c0,0.3,0,0.6-0.1,1l-0.3,1.3
		c-0.1,0.4-0.2,0.7-0.2,1.1H21c-0.1-0.4-0.1-0.8-0.2-1.1c0,0-0.3-1.1-0.3-1.3c-0.1-0.3-0.1-0.5-0.1-0.8
		C20.3,15.3,20.6,14.6,21.1,14.1z M24.8,21.8h-3.6c0-0.3,0-0.6,0-1h3.7C24.8,21.2,24.8,21.5,24.8,21.8z M25.9,49
		c-1.9,0.5-4,0.5-5.9,0c-1.7-2.2-2.7-6.1-2.7-10.2c0-3.6,0.8-7,2.1-9.3c0.3-0.6,0.9-2,0.9-2c0.4-1.3,0.7-2.7,0.8-4.1h3.7
		c0.1,1.4,0.4,2.7,0.8,4.1c0,0,0.5,1.4,0.9,2c0.1,0.3,0.3,0.5,0.4,0.8c-1.4,2.5-2.2,6.1-2.2,9.9c0,3.1,0.5,6.1,1.5,8.4
		C26.2,48.7,26.1,48.8,25.9,49z M35,50.3c-1.9,0.5-4,0.5-5.9,0c-1.7-2.2-2.7-6.1-2.7-10.2c0-3.6,0.8-7,2.1-9.3c0.4-0.6,0.9-2,0.9-2
		c0.4-1.3,0.7-2.7,0.8-4.1h3.7c0.1,1.4,0.4,2.7,0.8,4.1c0,0,0.5,1.4,0.9,2c1.4,2.3,2.1,5.7,2.1,9.3C37.7,44.2,36.6,48.1,35,50.3z
		 M45.9,44.9C45.4,46.5,44.7,48,44,49c-1.9,0.5-4,0.5-5.9,0c-0.1-0.1-0.2-0.3-0.3-0.5c1-2.4,1.5-5.3,1.5-8.4c0-3.7-0.8-7.3-2.2-9.9
		c0.1-0.3,0.3-0.6,0.4-0.8c0.3-0.6,0.9-2,0.9-2c0.4-1.3,0.7-2.7,0.8-4.1h3.7c0.1,1.4,0.4,2.7,0.8,4.1c0,0,0.5,1.4,0.9,2
		c1.4,2.3,2.1,5.7,2.1,9.3C46.7,40.9,46.4,43,45.9,44.9z"/>
</g>
</svg>
